<svg width="16" height="16" viewBox="0 0 16 16" fill="none" xmlns="http://www.w3.org/2000/svg">
<path d="M3 0H13V2H14.4H16V3C16 3.20305 15.9879 3.40328 15.9644 3.6C15.7372 5.49934 14.4453 7.07154 12.7026 7.70262C12.1164 9.32139 10.7182 10.5512 9 10.9V14H12V16H4V14H7V10.9C5.28182 10.5512 3.88358 9.32139 3.29737 7.70263C1.55469 7.07154 0.262776 5.49934 0.0356297 3.6C0.012104 3.40328 0 3.20305 0 3V2H1.6H3V0ZM13 3.6V5.74984C13.6948 5.24361 14.1905 4.48044 14.3472 3.6H13ZM3 5.74984V3.6H1.65277C1.80954 4.48044 2.30517 5.24361 3 5.74984Z" fill="#098551"/>
</svg>
